# xmcd
#
# Track frame offsets:
#	150
#	25788
#	48406
#	69819
#	89009
#	120010
#	140982
#	163492
#	185875
#	208848
#
# Disc length: 3048 seconds
#
# Revision: 1
# Processed by: cddbd v1.5.1PL2 Copyright (c) Steve Scherf et al.
# Submitted via: audiograbber 1.82.01
#
DISCID=940be60a
DTITLE=Hal Rugg - Finally
DYEAR=1900
DGENRE=Country
TTITLE0=Relaxin'
TTITLE1=I Love You Because
TTITLE2=Sewanee River
TTITLE3=Blue Eyes Crying In The Rain
TTITLE4=Watch What Happens
TTITLE5=Release Me
TTITLE6=We Could
TTITLE7=Deep Water
TTITLE8=In The Garden
TTITLE9=C Jam Blues
EXTD=
EXTT0=
EXTT1=
EXTT2=
EXTT3=
EXTT4=
EXTT5=
EXTT6=
EXTT7=
EXTT8=
EXTT9=
PLAYORDER=
